HIERARCHY
ROOT Spine
{
    OFFSET 0.0 0.0 -0.0
    CHANNELS 6 Xposition Yposition Zposition Zrotation Xrotation Yrotation
    JOINT ShoulderCenter
    {
        OFFSET 0.0 28.986366271972656 0.0
        CHANNELS 3 Zrotation Xrotation Yrotation
        JOINT LeftShoulder
        {
            OFFSET 17.241127014160156 0.0 0.0
            CHANNELS 3 Zrotation Xrotation Yrotation
            JOINT LeftElbow
            {
                OFFSET 26.649410247802734 0.0 0.0
                CHANNELS 3 Zrotation Xrotation Yrotation
                JOINT LeftHand
                {
                    OFFSET 26.809906005859375 0.0 0.0
                    CHANNELS 3 Zrotation Xrotation Yrotation
                    End Site
                    {
                        OFFSET 10.723962783813477 0.0 0.0
                    }
                }
            }
        }
        JOINT RightShoulder
        {
            OFFSET -17.241127014160156 0.0 0.0
            CHANNELS 3 Zrotation Xrotation Yrotation
            JOINT RightElbow
            {
                OFFSET -26.649410247802734 0.0 0.0
                CHANNELS 3 Zrotation Xrotation Yrotation
                JOINT RightHand
                {
                    OFFSET -26.809906005859375 0.0 0.0
                    CHANNELS 3 Zrotation Xrotation Yrotation
                    End Site
                    {
                        OFFSET -10.723962783813477 0.0 0.0
                    }
                }
            }
        }
        End Site
        {
            OFFSET 0.0 11.594547271728516 0.0
        }
    }
    JOINT LeftHip
    {
        OFFSET 14.8234889946034 -14.8234889946034 0.0
        CHANNELS 3 Zrotation Xrotation Yrotation
        JOINT LeftKnee
        {
            OFFSET 0.0 -40.246559143066406 0.0
            CHANNELS 3 Zrotation Xrotation Yrotation
            JOINT LeftFoot
            {
                OFFSET 0.0 -40.3082389831543 0.0
                CHANNELS 3 Zrotation Xrotation Yrotation
                End Site
                {
                    OFFSET 0.0 0.0 16.1232967376709
                }
            }
        }
    }
    JOINT RightHip
    {
        OFFSET -14.8234889946034 -14.8234889946034 0.0
        CHANNELS 3 Zrotation Xrotation Yrotation
        JOINT RightKnee
        {
            OFFSET 0.0 -40.246559143066406 0.0
            CHANNELS 3 Zrotation Xrotation Yrotation
            JOINT RightFoot
            {
                OFFSET 0.0 -40.3082389831543 0.0
                CHANNELS 3 Zrotation Xrotation Yrotation
                End Site
                {
                    OFFSET 0.0 0.0 16.1232967376709
                }
            }
        }
    }
}
MOTION
Frames: 13
Frame Time: 0.03333333333333333
-28.400001525878906 -21.600000381469727 7.299999713897705 -60.45536535289918 -11.351946700164763 91.03099787317633 8.174297861318147e-07 6.80975709879218e-07 2.198445861736176 137.48836234681258 3.5841926569243387 -117.2425693343234 -4.176265611038266e-06 1.2584745147712807e-06 51.293716440843085 -5.517382872562698e-33 3.975693351829397e-16 1.5902773407317588e-15 -115.5239149691593 -14.139194141919157 124.7481917277231 3.394385807423074e-06 -1.8804129944181655e-06 -66.5405689738326 6.361109362927032e-15 -6.620859447075238e-32 -1.1927080055488184e-15 4.58946796899883 -26.834496495911132 39.14816100269262 11.178772249406627 11.744708248098814 -31.021934612486863 0.0 0.0 1.1131941385122309e-14 140.06860702118206 -78.8197996364865 63.212818581112835 -70.34042792447512 21.189782661524195 39.864766712096255 -3.1805546814635164e-15 -1.590277340731758e-15 -3.1805546814635164e-15
-27.000001907348633 -21.5 7.400000095367432 -60.455366518642585 -11.157831053173588 91.37850664271745 -7.19936548017146e-07 -2.5421218876959935e-06 2.0571519672266265 137.24278547417495 3.4280909613751933 -117.57879196421273 3.379294174314125e-07 -3.61204427462812e-06 51.35980322425752 7.951386703658794e-16 -3.310429723537619e-32 -4.770832022195277e-15 -115.79055974598705 -14.444138383223045 124.25960346397392 -3.8910397431573045e-07 -8.469899375226328e-07 -65.33877564962341 0.0 0.0 -7.951386703658792e-16 4.714005667002814 -26.770727283853976 39.03284573760214 11.346729062042755 12.402212884542173 -33.364765706206526 2.648343778830095e-31 -3.1805546814635168e-15 9.54166404439055e-15 132.51474822750546 -79.48895042207843 56.05407157828188 -69.95270001382393 20.376779683496185 40.42147420050745 3.1805546814635168e-15 8.827812596100317e-32 3.1805546814635168e-15
-25.5 -21.299999237060547 7.500000476837158 -60.280110754744356 -10.750536050608446 91.37508352589253 2.604635250212951e-07 2.0962338054905965e-06 2.074887886227386 137.03820834714358 3.1690073625049466 -118.21963737903626 -1.2823295871218248e-06 -1.2876605817998657e-06 51.229519933976924 2.3854160110976376e-15 3.310429723537619e-32 1.5902773407317584e-15 -114.7479981747234 -14.803139577998184 125.65423576030538 1.7864516403771038e-06 5.5753017102446835e-06 -65.95705975908184 -1.3241718894150476e-31 -6.3611093629270335e-15 -2.3854160110976376e-15 5.061874621927328 -27.267698126891414 41.23459312342052 12.571794037906708 14.0520297474549 -38.07251410785598 0.0 0.0 -6.3611093629270335e-15 120.20168856403718 -79.74119393117826 44.1733573943576 -69.22442822778123 19.155206916625687 39.18239770034168 6.3611093629270335e-15 -4.4139062980501586e-32 -7.951386703658792e-16
-24.0 -20.80000114440918 7.599999904632568 -60.28010746937616 -10.555969642729455 91.56893348843948 2.088120001401188e-06 4.589242304490104e-07 2.398843460010603 137.01489556586586 2.5905688095967414 -118.0483710949405 -1.073080491220481e-06 2.1681657245810816e-06 50.66331404298351 -7.951386703658791e-16 -6.3611093629270335e-15 1.5902773407317584e-15 -114.36291391486202 -14.752135486819933 125.74548491016846 -4.9845135595482125e-06 -4.326792794052398e-06 -65.23418821388917 0.0 0.0 -7.951386703658794e-16 5.958156152356827 -28.77684438915981 45.642495350918054 15.199880518282068 15.585461700619037 -45.14603152735539 3.1805546814635168e-15 -4.4139062980501586e-32 -1.5902773407317584e-15 107.83792618218087 -80.02497004198987 32.45475748997071 -67.62900402217547 18.480560728344425 38.10878028383673 3.1805546814635168e-15 -2.2069531490250793e-32 -7.951386703658792e-16
-22.600000381469727 -20.399999618530273 7.699999809265137 -60.73007809625397 -10.560118227475249 92.96630914156017 1.6711961751646844e-06 3.79391624590727e-07 1.3726250992550182 136.52677702361936 2.4034492487545287 -117.67450238657429 1.6403908679492097e-06 1.3656764002591369e-06 50.20051821703079 -8.827812596100317e-32 6.3611093629270335e-15 1.5902773407317584e-15 -114.60830348176447 -14.504770505402417 125.0550640925244 -1.1691669287257502e-06 -2.9800402247557034e-06 -63.27435403581284 6.3611093629270335e-15 -1.2138242319637935e-31 -2.1866313435061676e-15 6.202073254781303 -32.2124793160144 49.50624474358421 19.78617737746379 17.719472060542312 -53.25058956753133 6.3611093629270335e-15 3.1805546814635168e-15 1.5902773407317582e-15 98.83051693963763 -81.03500024692472 23.501563972739753 -65.96267381422875 17.293352456101378 36.63081611929417 0.0 0.0 -7.951386703658792e-16
-21.19999885559082 -19.799999237060547 7.699999809265137 -61.27726048170937 -10.142860656805613 92.58856980748291 2.885923580791685e-06 2.262590740349673e-06 1.7997437924264708 135.84209256792641 2.4869819317275366 -117.08778379869965 -4.170725167997032e-06 -1.850910683710222e-06 49.56818103916335 7.951386703658794e-16 -3.310429723537619e-32 -4.770832022195277e-15 -115.70317804337198 -14.380586210044427 124.05669941947917 -1.9327435704891997e-06 -2.8838396127320427e-06 -62.52528644199987 0.0 0.0 -3.975693351829396e-15 7.40761861134334 -36.1062614153447 55.78020492440123 25.870833280417074 19.787790534812075 -65.39192003087962 2.2069531490250793e-31 -3.1805546814635176e-15 7.951386703658793e-15 86.60868286436549 -80.407495262183 12.268968168837581 -63.27428235057181 17.225876713834207 35.139593068916604 1.7655625192200634e-31 3.1805546814635164e-15 -6.361109362927033e-15
-19.799999237060547 -19.200000762939453 7.699999809265137 -61.630955196198244 -10.37150490447874 92.91922640668513 -2.056742003983849e-06 -1.9615504521472053e-06 1.5638389033486204 135.51839552471284 2.610260409437358 -116.577660022207 3.5528957518542906e-06 -1.280982732538199e-06 48.58101490553205 -6.361109362927033e-15 6.361109362927033e-15 3.531125038440127e-31 -114.92502836919915 -14.382217634660666 123.96284511935505 1.3361423305226911e-06 2.556879502278374e-06 -62.01159186788722 -1.2138242319637935e-31 6.3611093629270335e-15 2.1866313435061676e-15 8.780295477960996 -41.71439854114991 61.25128117581138 34.25843461982858 22.222742599651404 -78.22379362514476 -6.361109362927033e-15 3.180554681463516e-15 4.770832022195274e-15 75.15194063174069 -79.86975322615106 0.9290192047702449 -61.280648252166905 15.772344028656017 33.070172195258664 4.4139062980501586e-32 -3.1805546814635164e-15 1.5902773407317582e-15
-18.600000381469727 -18.799999237060547 7.699999809265137 -62.081758291607336 -10.373707968156392 92.54611227134862 1.464393812390629e-06 1.8776616731858367e-06 1.485437807264406 135.3617532573133 3.0505612747133513 -116.42503958664577 -4.380285277192355e-06 1.9035837027319057e-06 47.97166555933025 7.951386703658792e-15 7.95138670365879e-16 -3.1805546814635168e-15 -115.20446301577273 -14.792788232220204 123.22572869027567 3.943715087271558e-09 -1.3347979216413737e-06 -61.67028346396344 0.0 0.0 -3.975693351829396e-16 10.814051934699457 -47.57063673788231 67.15393531693778 42.77326203456745 23.565701320593817 -87.52604223982483 6.3611093629270335e-15 -3.531125038440127e-31 -6.3611093629270335e-15 68.10675369729682 -78.5522926888727 -5.885160324622567 -58.717567649844085 14.871456106652275 29.76536673028355 -6.361109362927035e-15 3.1805546814635183e-15 -6.361109362927035e-15
-17.5 -18.299999237060547 7.599999904632568 -62.62548991377815 -10.148910286848826 92.51501740398557 3.6765744389286303e-07 7.543937071913995e-07 1.5818410729254102 132.85430833186982 3.208436175677864 -115.30035507497443 -7.605502536408729e-07 -3.188775778830996e-06 46.22609713761087 -6.361109362927035e-15 -3.531125038440127e-31 6.361109362927035e-15 -115.81035928130298 -14.414962555902195 122.62753460852139 -1.4060582188492067e-06 1.1573839356959957e-06 -60.73478471698482 0.0 0.0 -1.1927080055488186e-15 13.081604114422205 -54.789157072589994 73.02690591127927 51.31061741571246 24.81226752400653 -93.7954087071601 0.0 -3.1805546814635164e-15 0.0 62.00599207186386 -77.59010176489492 -11.150006585061387 -55.98380851710084 15.046520233890353 28.671685167958866 0.0 0.0 -2.3854160110976376e-15
-16.100000381469727 -17.80000114440918 7.599999904632568 -62.89187063585812 -10.60381069477958 92.51989970593056 1.8047605240911522e-06 2.3659963572128807e-06 1.9140174068935996 132.0263479078039 2.808783492407684 -113.88764074764688 -1.4949151534966697e-06 -1.5186220037615837e-06 44.35939592231216 0.0 0.0 3.1805546814635168e-15 -115.02449002888858 -14.063323552262284 122.64093728328122 -2.54741387715284e-06 -4.863956559927454e-06 -60.03537553704504 6.3611093629270335e-15 -4.1932109831476505e-31 -7.553817368475852e-15 17.816949322450178 -61.96966074810831 79.97040261674141 59.629864937820365 24.99717883197781 -97.95942137107211 6.3611093629270335e-15 -8.827812596100317e-32 -1.5902773407317584e-15 56.485142658670995 -75.96432353785329 -16.827756333547423 -53.868636977157465 13.541534751477661 25.749234173043398 6.361109362927033e-15 -1.5902773407317584e-15 -2.385416011097637e-15
-15.199999809265137 -18.099998474121094 7.500000476837158 -63.072329674422846 -11.011613137303621 92.33364991556743 -1.6659404558531258e-06 -2.970017596105847e-06 1.3111622569505519 130.5134846232955 3.304734967437259 -113.95049207800706 3.867700002326037e-07 1.0974408765798617e-06 43.72222785330786 2.2069531490250793e-32 -7.951386703658791e-16 3.1805546814635164e-15 -114.49306336285586 -14.721479302495775 121.72305649499314 1.5611796882182929e-06 2.140083532261665e-06 -58.84127120426687 6.3611093629270335e-15 6.3611093629270335e-15 5.342337941520747e-16 21.020091384128328 -64.9946466003701 83.85432626147335 65.48729436721041 23.747361447227114 -106.43701197744242 2.648343778830095e-31 -3.1805546814635176e-15 9.541664044390553e-15 55.82140742687855 -74.80797571117083 -17.23861946688177 -53.19505497347608 13.269773895683675 25.478609996161314 -3.1805546814635176e-15 3.1805546814635176e-15 -1.5902773407317588e-15
-13.600000381469727 -17.100000381469727 7.400000095367432 -63.34443057096567 -10.994840891325222 92.300154437776 1.6388767234423137e-06 3.074021375607743e-07 1.6870846723547286 129.39856241695077 3.0326810163018267 -112.97320921974392 3.3491906185986152e-06 -4.23436365854606e-06 42.78148261667029 0.0 0.0 -3.1805546814635176e-15 -113.97174322615467 -14.101719843812013 121.64962540107254 1.2950723840636281e-06 1.6470703756904205e-07 -57.83180177706677 -6.3611093629270335e-15 -6.3611093629270335e-15 2.1866313435061676e-15 33.05920570673958 -75.12700372791751 97.4628134737619 71.2832146451651 22.87462156564516 -96.28551215226757 -6.361109362927033e-15 -3.1805546814635168e-15 7.95138670365879e-15 50.36347126308328 -72.77304826302074 -21.625029751109277 -49.93166087841772 12.678679584158584 23.264376231346745 6.361109362927033e-15 -5.29668755766019e-31 -9.541664044390549e-15
-12.300000190734863 -16.899999618530273 7.299999713897705 -63.16383614461439 -11.36679423764141 92.86140466947725 2.9133189784474014e-07 1.0860468169309276e-06 0.5457871104578366 129.04147693779905 3.1199654627298603 -113.18801857350452 3.521014714626825e-07 -1.4566312842934016e-06 42.02112187898339 0.0 6.3611093629270335e-15 0.0 -113.55516814539804 -14.695573879218392 121.58507351320077 -2.0241936396305266e-06 -3.906163034988092e-06 -57.001875953152975 -6.3611093629270335e-15 9.931289170612858e-32 -1.7890620083232284e-15 50.4177960705939 -81.22234651268188 114.65327275600218 74.08541553702851 22.10678786316351 -85.62937509337901 0.0 0.0 -1.5902773407317584e-15 44.98420134048779 -71.65551658614335 -27.152394663946996 -49.77753021792646 13.537997909847157 26.41510280858696 -3.1805546814635176e-15 -4.4139062980501586e-32 1.5902773407317588e-15
